<?xml version="1.0" encoding="UTF-8"?>
<svg width="44px" height="34px" viewBox="0 0 44 34" version="1.1" xmlns="http://www.w3.org/2000/svg" xmlns:xlink="http://www.w3.org/1999/xlink">
    <title>deepdive-blogpost</title>
    <g id="deepdive-blogpost" stroke="none" stroke-width="1" fill="none" fill-rule="evenodd">
        <g id="Group-7" transform="translate(1.000000, 1.000000)">
            <path d="M34,0 L34,28 C34,30.209139 35.790861,32 38,32 L38,32 L6,32 C2.6862915,32 4.05812251e-16,29.3137085 0,26 L0,0 L34,0 Z" id="Combined-Shape" stroke="#FFFFFF" stroke-width="1.5" fill="#80B9EB"></path>
            <path d="M34,7 L42,7 L42,28 C42,30.209139 40.209139,32 38,32 C35.790861,32 34,30.209139 34,28 L34,7 L34,7 Z" id="Rectangle" stroke="#FFFFFF" stroke-width="1.5" fill="#4E9DE4"></path>
            <g id="Group-6" transform="translate(6.000000, 6.000000)" fill="#FFFFFF">
                <rect id="Rectangle" x="0" y="0" width="22" height="1.5"></rect>
                <rect id="Rectangle" x="0" y="4" width="22" height="1.5"></rect>
                <rect id="Rectangle" x="0" y="9" width="10" height="1.5"></rect>
                <rect id="Rectangle" x="12" y="9" width="10" height="1.5"></rect>
                <rect id="Rectangle" x="0" y="13" width="10" height="1.5"></rect>
                <rect id="Rectangle" x="12" y="13" width="10" height="1.5"></rect>
                <rect id="Rectangle" x="0" y="17" width="10" height="1.5"></rect>
                <rect id="Rectangle" x="12" y="17" width="10" height="1.5"></rect>
            </g>
        </g>
    </g>
</svg>