<svg viewBox="0 0 250 237" xmlns="http://www.w3.org/2000/svg" xmlns:xlink="http://www.w3.org/1999/xlink">
    <defs>
        <path d="M39.7329 92.2629H8.1707c-4.2471 0-7.694-3.4447-7.694-7.694V8.1064c0-4.2493 3.4469-7.6939 7.694-7.6939C3.9225.4125.478 3.8571.478 8.1065v76.4624c0 4.2493 3.4446 7.694 7.6939 7.694h31.561" id="collections-shop-item_svg__b"/>
        <path d="M4.8525 9.8282c-2.625 0-4.7529-2.1278-4.7529-4.7528 0-2.624 2.1279-4.7518 4.7529-4.7518 2.624 0 4.7518 2.1278 4.7518 4.7518 0 2.625-2.1279 4.7528-4.7518 4.7528" id="collections-shop-item_svg__e"/>
        <path d="M.1929 3.03C.2454 1.365 1.6104.0321 3.2882.0321 1.6114.0321.2454 1.365.193 3.03M33.4082.6954A3.0825 3.0825 0 0031.4925.032h.001c.7233 0 1.3876.2475 1.9147.6633" id="collections-shop-item_svg__f"/>
        <linearGradient x1="197.9063%" y1="140.7631%" x2="197.9063%" y2="-150.9816%" id="collections-shop-item_svg__c">
            <stop stop-color="#6FB8B5" offset="0%"/>
            <stop stop-color="#56989B" offset="100%"/>
        </linearGradient>
        <linearGradient x1="167.0136%" y1="4825.8399%" x2="167.0136%" y2="-4112.8306%" id="collections-shop-item_svg__g">
            <stop stop-color="#6FB8B5" offset="0%"/>
            <stop stop-color="#56989B" offset="100%"/>
        </linearGradient>
        <radialGradient cx="26.018%" cy="-20.786%" fx="26.018%" fy="-20.786%" r="98.7569%" gradientTransform="matrix(0 1 -.80692 0 .0925 -.468)" id="collections-shop-item_svg__i">
            <stop stop-color="#EEE" offset="0%"/>
            <stop stop-color="#D8D8D8" stop-opacity="0" offset="100%"/>
        </radialGradient>
        <filter x="-38.2%" y="-48.3%" width="176.3%" height="196.7%" filterUnits="objectBoundingBox" id="collections-shop-item_svg__a">
            <feOffset dy="10" in="SourceAlpha" result="shadowOffsetOuter1"/>
            <feGaussianBlur stdDeviation="10" in="shadowOffsetOuter1" result="shadowBlurOuter1"/>
            <feColorMatrix values="0 0 0 0 0 0 0 0 0 0 0 0 0 0 0 0 0 0 0.5 0" in="shadowBlurOuter1" result="shadowMatrixOuter1"/>
            <feMerge>
                <feMergeNode in="shadowMatrixOuter1"/>
                <feMergeNode in="SourceGraphic"/>
            </feMerge>
        </filter>
    </defs>
    <g fill="none" fill-rule="evenodd">
        <g filter="url(#collections-shop-item_svg__a)" transform="translate(49 21)">
            <path d="M22.6907 51.106c0 1.7111 1.3875 3.0986 3.0975 3.0986h28.2043c1.711 0 3.0975-1.3875 3.0975-3.0985V20.3239c0-1.711-1.3864-3.0975-3.0975-3.0975H25.7882c-1.71 0-3.0975 1.3865-3.0975 3.0975v30.7822" fill="#282926"/>
            <path fill="#282927" d="M115.0382 0H80.564L62.205 28.6114l35.5971 5.0861 35.595-5.086L115.0382 0"/>
            <path d="M.4779 107.656c0 4.2494 3.4446 7.694 7.6939 7.694h135.915c4.2493 0 7.694-3.4446 7.694-7.694V31.1937c0-4.2493-3.4447-7.694-7.694-7.694H8.1718c-4.2493 0-7.694 3.4447-7.694 7.694v76.4625" fill="#130F0E"/>
            <path d="M148.814 68.446c0 28.1733-22.8386 51.013-51.0119 51.013-28.1742 0-51.0128-22.8397-51.0128-51.013 0-28.1731 22.8386-51.0128 51.0128-51.0128 28.1733 0 51.0118 22.8397 51.0118 51.0129" fill="#130F0E"/>
            <path d="M142.8016 68.446c0 24.853-20.1462 45-44.9994 45s-45.0006-20.147-45.0006-45c0-24.8528 20.1474-45 45.0006-45 24.8532 0 44.9994 20.1472 44.9994 45" fill="#2E2F2C"/>
            <path d="M97.8023 109.1604c-22.4866 0-40.715-18.2287-40.715-40.7143 0-22.487 18.2284-40.7143 40.715-40.7143 22.4852 0 40.7136 18.2274 40.7136 40.7143 0 22.4856-18.2284 40.7143-40.7136 40.7143" fill="#000"/>
            <path d="M97.8021 101.6604c-18.3442 0-33.2148-14.8708-33.2148-33.2143 0-18.3446 14.8706-33.2143 33.2148-33.2143 18.3433 0 33.2138 14.8697 33.2138 33.2143 0 18.3435-14.8705 33.2143-33.2138 33.2143" fill="#1D1D1D"/>
            <g transform="translate(0 23.0871)">
                <mask id="collections-shop-item_svg__d" fill="#fff">
                    <use xlink:href="#collections-shop-item_svg__b"/>
                </mask>
                <path d="M39.7329 92.2629H8.1707c-4.2471 0-7.694-3.4447-7.694-7.694V8.1064c0-4.2493 3.4469-7.6939 7.694-7.6939C3.9225.4125.478 3.8571.478 8.1065v76.4624c0 4.2493 3.4446 7.694 7.6939 7.694h31.561" fill="url(#collections-shop-item_svg__c)" mask="url(#collections-shop-item_svg__d)"/>
            </g>
            <path d="M39.7329 115.35H8.1718c-4.2493 0-7.694-3.4446-7.694-7.694V31.1937c0-4.2493 3.4447-7.694 7.694-7.694H62.205c-12.4114 0-22.4721 10.0608-22.4721 22.4722V115.35" fill="#676867"/>
            <path d="M13.7807 30.6621c0 1.6768-1.47 3.0354-3.2828 3.0354-1.8133 0-3.2829-1.3586-3.2829-3.0354 0-1.6767 1.4696-3.0353 3.2829-3.0353 1.8128 0 3.2828 1.3586 3.2828 3.0353M.4768 43.4014v64.2547c0 4.2493 3.4468 7.6939 7.695 7.6939h31.561V45.9729c0-.8711.0622-1.7261.1576-2.5715H.4768" fill="#130F0E"/>
            <path fill="#5D5D5A" d="M116.551 7.9221H79.0522l3.1543-4.92h31.1893l3.1554 4.92"/>
            <path d="M146.4504 31.5418c0 2.1621-1.7529 3.914-3.915 3.914-2.1622 0-3.915-1.7519-3.915-3.914 0-2.1622 1.7528-3.915 3.915-3.915 2.1621 0 3.915 1.7528 3.915 3.915" fill="#72DE4A"/>
            <path d="M52.5375 105.2046c0 2.1622-1.7529 3.915-3.914 3.915-2.162 0-3.915-1.7528-3.915-3.915 0-2.161 1.753-3.9139 3.915-3.9139 2.1611 0 3.914 1.7529 3.914 3.914" fill="#000"/>
            <g transform="translate(22.5 8.0871)">
                <mask id="collections-shop-item_svg__h" fill="#fff">
                    <use xlink:href="#collections-shop-item_svg__f"/>
                </mask>
                <path d="M.1929 3.03C.2454 1.365 1.6104.0321 3.2882.0321 1.6114.0321.2454 1.365.193 3.03M33.4082.6954A3.0825 3.0825 0 0031.4925.032h.001c.7233 0 1.3876.2475 1.9147.6633" fill="url(#collections-shop-item_svg__g)" mask="url(#collections-shop-item_svg__h)"/>
            </g>
            <circle fill="url(#collections-shop-item_svg__i)" opacity=".2" cx="96.7317" cy="66.7317" r="25"/>
        </g>
        <path d="M164.0882 21l15.1478 23.499 14.0346.0006c4.1868 0 7.596 3.3135 7.7256 7.4497l.0038.2443v76.4625c0 4.2493-3.4605 7.6939-7.7294 7.6939l-26.3157.0006c-6.1935 2.6442-13.016 4.1083-20.1822 4.1083-7.1664 0-13.9891-1.4641-20.1828-4.1083l-69.8605-.0006c-4.2689 0-7.7294-3.4446-7.7294-7.694V52.1937c0-4.2493 3.4605-7.694 7.7294-7.694l14.5856-.0006.0002-3.175c0-1.6521 1.2994-3.0016 2.9353-3.0927l.1765-.0049h28.3342c1.719 0 3.1118 1.3865 3.1118 3.0975l-.001 3.1751h8.434L129.455 21h34.6332z" fill="#2BBAEE" opacity=".3"/>
    </g>
</svg>
