<svg viewBox="0 0 331 38" xmlns="http://www.w3.org/2000/svg">
    <g fill="none" fill-rule="evenodd">
        <path fill="#B5BCC4" opacity=".7" d="M0 2h331V0H0z"/>
        <path fill="#DCE0E3" d="M225 19.55h106v18H225z"/>
        <path d="M210.74 38.38v-2.32c2.7-.38 4.15-2.26 4.15-4.24 0-1.95-1.34-3.6-3.95-4.17l-.2-.04v-3.93a2.65 2.65 0 011.62 2.08l2.37-.75a4.62 4.62 0 00-4-3.66V19h-2.01v2.33c-2.42.33-4.17 2.13-4.17 4.3 0 2.15 1.45 3.51 3.77 4.04l.4.09v4.04c-1.47-.36-2.15-1.59-2.26-2.84l-2.46.68c.2 1.9 1.67 4.07 4.72 4.44v2.3h2.02zm-2.02-11.2c-1.1-.21-1.6-.91-1.6-1.7 0-.84.55-1.63 1.6-1.9v3.6zm2.02 6.62v-3.6c1.1.3 1.6.96 1.6 1.75 0 .84-.5 1.63-1.6 1.85z" fill="#DCE0E3" fill-rule="nonzero"/>
    </g>
</svg>
